<svg xmlns="http://www.w3.org/2000/svg" width="48" height="48"><linearGradient id="a" x1="9.993" x2="40.615" y1="-299.993" y2="-330.615" gradientTransform="matrix(1 0 0 -1 0 -290)" gradientUnits="userSpaceOnUse"><stop offset="0" stop-color="#2aa4f4"/><stop offset="1" stop-color="#007ad9"/></linearGradient><path fill="url(#a)" d="M24 4C12.954 4 4 12.954 4 24c0 10.028 7.379 18.331 17.004 19.777C21.981 43.924 22.982 41 24 41c.919 0 1.824 2.938 2.711 2.818C36.475 42.495 44 34.127 44 24c0-11.046-8.954-20-20-20z"/><path d="M27.707 21.169c0-1.424.305-3.121 1.757-3.121h4.283l-.001-5.617-.05-.852-.846-.114c-.608-.082-1.873-.253-4.206-.253-5.569 0-8.636 3.315-8.636 9.334v2.498H15.06v7.258h4.948V43.6c1.29.261 2.625.4 3.992.4 1.268 0 2.504-.131 3.707-.357V30.301h5.033l1.122-7.258h-6.155v-1.874z" opacity=".05"/><path d="M27.207 21.169c0-1.353.293-3.621 2.257-3.621h3.783V12.46l-.026-.44-.433-.059c-.597-.081-1.838-.249-4.143-.249-5.323 0-8.136 3.055-8.136 8.834v2.998H15.56v6.258h4.948v13.874c1.136.2 2.298.324 3.492.324 1.094 0 2.16-.112 3.207-.281V29.801h5.104l.967-6.258h-6.072v-2.374z" opacity=".05"/><path fill="#fff" d="M26.707 29.301h5.176l.813-5.258h-5.989v-2.874c0-2.184.714-4.121 2.757-4.121h3.283V12.46c-.577-.078-1.797-.248-4.102-.248-4.814 0-7.636 2.542-7.636 8.334v3.498H16.06v5.258h4.948v14.475a20.234 20.234 0 005.699.041V29.301z"/></svg>